<svg width="18" height="18" viewBox="0 0 18 18" fill="none" xmlns="http://www.w3.org/2000/svg">
<path d="M8.25283 4.08548C8.25283 3.07286 7.85057 2.10171 7.13453 1.38568C6.4185 0.669643 5.44735 0.267379 4.43473 0.267379C3.4221 0.267379 2.45095 0.669643 1.73492 1.38568C1.01889 2.10171 0.616623 3.07286 0.616623 4.08548C0.616623 5.09811 1.01889 6.06926 1.73492 6.78529C2.45095 7.50132 3.4221 7.90359 4.43473 7.90359C5.44735 7.90359 6.4185 7.50132 7.13453 6.78529C7.85057 6.06926 8.25283 5.09811 8.25283 4.08548ZM6.5192 4.08548C6.5192 4.63832 6.29959 5.16852 5.90867 5.55943C5.51776 5.95035 4.98756 6.16996 4.43473 6.16996C3.88189 6.16996 3.35169 5.95035 2.96078 5.55943C2.56986 5.16852 2.35025 4.63832 2.35025 4.08548C2.35025 3.53264 2.56986 3.00245 2.96078 2.61153C3.35169 2.22062 3.88189 2.001 4.43473 2.001C4.98756 2.001 5.51776 2.22062 5.90867 2.61153C6.29959 3.00245 6.5192 3.53264 6.5192 4.08548ZM17.3337 4.08548C17.3337 3.07286 16.9315 2.10171 16.2154 1.38568C15.4994 0.669643 14.5282 0.267379 13.5156 0.267379C12.503 0.267379 11.5318 0.669643 10.8158 1.38568C10.0998 2.10171 9.69752 3.07286 9.69752 4.08548C9.69752 5.09811 10.0998 6.06926 10.8158 6.78529C11.5318 7.50132 12.503 7.90359 13.5156 7.90359C14.5282 7.90359 15.4994 7.50132 16.2154 6.78529C16.9315 6.06926 17.3337 5.09811 17.3337 4.08548ZM15.6001 4.08548C15.6001 4.63832 15.3805 5.16852 14.9896 5.55943C14.5987 5.95035 14.0685 6.16996 13.5156 6.16996C12.9628 6.16996 12.4326 5.95035 12.0417 5.55943C11.6508 5.16852 11.4311 4.63832 11.4311 4.08548C11.4311 3.53264 11.6508 3.00245 12.0417 2.61153C12.4326 2.22062 12.9628 2.001 13.5156 2.001C14.0685 2.001 14.5987 2.22062 14.9896 2.61153C15.3805 3.00245 15.6001 3.53264 15.6001 4.08548ZM1.73492 15.8662C2.45095 16.5822 3.4221 16.9845 4.43473 16.9845C5.44735 16.9845 6.4185 16.5822 7.13453 15.8662C7.85057 15.1502 8.25283 14.179 8.25283 13.1664C8.25283 12.1538 7.85057 11.1826 7.13453 10.4666C6.4185 9.75054 5.44735 9.34828 4.43473 9.34828C3.4221 9.34828 2.45095 9.75054 1.73492 10.4666C1.01889 11.1826 0.616623 12.1538 0.616623 13.1664C0.616623 14.179 1.01889 15.1502 1.73492 15.8662ZM5.90867 14.6403C5.51776 15.0312 4.98756 15.2509 4.43473 15.2509C3.88189 15.2509 3.35169 15.0312 2.96078 14.6403C2.56986 14.2494 2.35025 13.7192 2.35025 13.1664C2.35025 12.6135 2.56986 12.0833 2.96078 11.6924C3.35169 11.3015 3.88189 11.0819 4.43473 11.0819C4.98756 11.0819 5.51776 11.3015 5.90867 11.6924C6.29959 12.0833 6.5192 12.6135 6.5192 13.1664C6.5192 13.7192 6.29959 14.2494 5.90867 14.6403ZM17.3337 13.1664C17.3337 12.1538 16.9315 11.1826 16.2154 10.4666C15.4994 9.75054 14.5282 9.34828 13.5156 9.34828C12.503 9.34828 11.5318 9.75054 10.8158 10.4666C10.0998 11.1826 9.69752 12.1538 9.69752 13.1664C9.69752 14.179 10.0998 15.1502 10.8158 15.8662C11.5318 16.5822 12.503 16.9845 13.5156 16.9845C14.5282 16.9845 15.4994 16.5822 16.2154 15.8662C16.9315 15.1502 17.3337 14.179 17.3337 13.1664ZM15.6001 13.1664C15.6001 13.7192 15.3805 14.2494 14.9896 14.6403C14.5987 15.0312 14.0685 15.2509 13.5156 15.2509C12.9628 15.2509 12.4326 15.0312 12.0417 14.6403C11.6508 14.2494 11.4311 13.7192 11.4311 13.1664C11.4311 12.6135 11.6508 12.0833 12.0417 11.6924C12.4326 11.3015 12.9628 11.0819 13.5156 11.0819C14.0685 11.0819 14.5987 11.3015 14.9896 11.6924C15.3805 12.0833 15.6001 12.6135 15.6001 13.1664Z" fill="#0E1922" stroke="#0E1922" stroke-width="0.371491"/>
</svg>
